<?xml version="1.0" standalone="no"?>
<!DOCTYPE svg PUBLIC "-//W3C//DTD SVG 20010904//EN"
 "http://www.w3.org/TR/2001/REC-SVG-20010904/DTD/svg10.dtd">
<svg version="1.0" xmlns="http://www.w3.org/2000/svg"
 width="16.000000pt" height="16.000000pt" viewBox="0 0 16.000000 16.000000"
 preserveAspectRatio="xMidYMid meet">
<metadata>
Created by potrace 1.11, written by Peter Selinger 2001-2013
</metadata>
<g transform="translate(0.000000,16.000000) scale(0.004000,-0.004000)"
fill="#000000" stroke="none">
<path d="M0 2296 l0 -996 345 0 345 0 -3 376 c-2 294 0 377 10 381 21 8 82
-17 111 -46 24 -25 57 -81 179 -307 21 -38 79 -145 128 -237 l90 -167 388 0
c213 0 387 3 387 6 0 3 -22 47 -49 97 -26 51 -83 160 -126 242 -137 263 -156
299 -200 360 -47 66 -130 155 -145 155 -6 0 -10 5 -10 10 0 6 6 10 14 10 20 0
124 72 170 117 57 56 113 147 137 222 27 86 33 240 12 336 -29 140 -133 284
-249 347 -50 27 -162 61 -244 74 -25 3 -325 8 -667 11 l-623 4 0 -995z m1047
481 c56 -30 77 -95 52 -165 -21 -61 -108 -89 -288 -91 l-121 -2 0 142 0 141
163 -4 c129 -3 169 -7 194 -21z"/>
<path d="M2150 2295 l0 -995 518 1 c507 1 519 1 637 25 202 41 297 87 413 198
188 180 260 374 267 721 7 369 -67 608 -252 811 -96 105 -265 188 -448 220
-22 4 -286 9 -587 11 l-548 4 0 -996z m906 452 c77 -16 148 -58 178 -105 47
-75 61 -160 61 -362 -1 -144 -4 -197 -17 -240 -31 -101 -92 -170 -163 -185
-16 -4 -85 -9 -152 -12 l-123 -5 0 461 0 461 78 0 c42 0 104 -6 138 -13z"/>
<path d="M0 1060 l0 -190 2000 0 2000 0 0 190 0 190 -2000 0 -2000 0 0 -190z"/>
</g>
</svg>
